<svg width="129" height="97" viewBox="0 0 129 97" fill="none" xmlns="http://www.w3.org/2000/svg">
<g clip-path="url(#clip0_69_604)">
<path d="M53.9061 55.0319L70.6234 78.1518C70.6234 78.1518 70.6873 78.2317 70.7192 78.2796L53.9221 55.0478L53.9061 55.0319Z" fill="#9747FF"/>
<path d="M60.2607 85.6244L55.9816 79.7007L27.4648 79.7805H27.4169C21.0621 79.7805 15.4737 75.7249 13.5098 69.6735C12.2963 65.9532 12.6156 61.9934 14.388 58.5127C16.1603 55.0319 19.178 52.4453 22.8983 51.2318C24.3992 50.7368 25.932 50.5133 27.4488 50.5133C32.0154 50.5133 36.3903 52.6688 39.2164 56.4849L37.4441 54.042C37.2844 53.8184 37.1407 53.563 36.997 53.3235C30.0514 50.7528 24.3353 45.4518 21.3495 38.4264C20.5512 38.618 19.7528 38.8256 18.9545 39.081C11.9929 41.3483 6.32471 46.1863 3.00361 52.7167C-0.317494 59.2472 -0.8923 66.6717 1.35902 73.6333C5.04736 84.9697 15.5056 92.554 27.4169 92.554H27.4967L66.4558 92.4262C66.7273 92.4262 66.9987 92.3943 67.2701 92.3624C64.6037 90.5901 62.2246 88.3228 60.2607 85.5924V85.6244Z" fill="url(#paint0_linear_69_604)"/>
<path d="M55.9979 79.7006L39.2806 56.5806C39.2806 56.5806 39.2327 56.5167 39.2167 56.5007L55.9979 79.7006Z" fill="#9747FF"/>
<path d="M46.5613 42.2743L75.0781 42.1945L46.4017 42.2743C46.4336 42.2743 46.4815 42.2743 46.5134 42.2743H46.5613Z" fill="#9747FF"/>
<path d="M86.3667 54.8722C86.0952 54.9041 85.8238 54.936 85.5524 54.936H82.5825C88.8894 54.9999 94.4299 59.0395 96.3779 65.043C97.5914 68.7633 97.272 72.7231 95.4997 76.2039C93.7274 79.6846 90.7097 82.2713 86.9894 83.4847C80.9699 85.4327 74.4554 83.341 70.7032 78.2636L72.4436 80.6746C74.0882 82.9419 74.3117 85.8957 73.0344 88.3866C71.8848 90.6379 69.7133 92.1068 67.2544 92.3783C71.741 95.3641 77.0101 96.9767 82.4069 96.9767C85.249 96.9767 88.123 96.5297 90.9332 95.6195C97.8947 93.3523 103.563 88.5143 106.884 81.9839C110.205 75.4534 110.78 68.0288 108.529 61.0673C108.273 60.269 107.97 59.5026 107.65 58.7521C105.607 59.2152 103.563 59.4547 101.519 59.4547C96.1224 59.4547 90.8374 57.858 86.3667 54.8562V54.8722Z" fill="url(#paint1_linear_69_604)"/>
<path d="M73.0502 88.4025C74.3275 85.9117 74.088 82.9578 72.4594 80.6906L70.719 78.2796C70.719 78.2796 70.6551 78.1997 70.6232 78.1518L53.9059 55.0318H46.5931C46.5931 55.0318 46.5292 55.0478 46.5133 55.0478C43.1762 55.0478 39.9828 54.4411 36.997 53.3394C37.1407 53.5789 37.2685 53.8184 37.4441 54.0579L39.2164 56.5008C39.2164 56.5008 39.2643 56.5647 39.2803 56.5806L55.9976 79.7006L60.2767 85.6243C62.2406 88.3387 64.6197 90.606 67.2861 92.3943C69.745 92.1228 71.9165 90.6539 73.0661 88.4025H73.0502Z" fill="#9747FF"/>
<path d="M82.4229 54.936L53.9061 55.0159L82.5826 54.936C82.5506 54.936 82.5027 54.936 82.4708 54.936H82.4229Z" fill="#9747FF"/>
<path d="M89.7196 40.6298C89.7196 40.6298 89.7835 40.7096 89.8154 40.7575L73.0183 17.5098L89.7356 40.6298H89.7196Z" fill="#9747FF"/>
<path d="M42.5856 42.3382C42.873 42.3063 43.1444 42.2743 43.4318 42.2743H46.4017C40.0948 42.2105 34.5543 38.1708 32.6063 32.1673C31.3928 28.447 31.7122 24.4873 33.4845 21.0065C35.2568 17.5257 38.2746 14.9391 41.9948 13.7256C43.4957 13.2306 45.0285 13.0071 46.5454 13.0071C51.1119 13.0071 55.4868 15.1626 58.3129 18.9787L56.5406 16.5358C54.896 14.2685 54.6725 11.3146 55.9498 8.82379C57.0835 6.58843 59.239 5.11948 61.6979 4.83208C54.8641 0.281526 46.1941 -1.07566 38.035 1.59081C31.0735 3.8581 25.4053 8.69605 22.0842 15.2265C18.7631 21.7569 18.1883 29.1815 20.4396 36.1431C20.6951 36.9414 20.9984 37.7078 21.3178 38.4582C28.7583 36.7498 36.4064 38.2507 42.5696 42.3542L42.5856 42.3382Z" fill="url(#paint2_linear_69_604)"/>
<path d="M36.9973 53.3394C35.7839 51.1838 35.704 48.5812 36.8536 46.3299C37.9873 44.0946 40.1428 42.6256 42.6017 42.3382C36.4385 38.2347 28.7904 36.7338 21.3498 38.4423C24.3516 45.4517 30.0518 50.7687 36.9973 53.3394Z" fill="#9747FF"/>
<path d="M79.3572 48.1182L75.0781 42.1945L46.5613 42.2743H46.5134C46.5134 42.2743 46.4336 42.2743 46.4016 42.2743H43.4318C43.1444 42.2743 42.857 42.3062 42.5856 42.3382C45.252 44.1264 47.663 46.3778 49.6269 49.0921L53.9061 55.0158L82.4228 54.936H82.4707C82.4707 54.936 82.5506 54.936 82.5825 54.936H85.5523C85.8238 54.936 86.0952 54.9041 86.3666 54.8721C83.7002 53.0998 81.3211 50.8325 79.3572 48.1022V48.1182Z" fill="#9747FF"/>
<path d="M53.9062 55.0158L49.6271 49.0921C47.6632 46.3618 45.2522 44.1105 42.5857 42.3381C40.1268 42.6255 37.9713 44.0945 36.8377 46.3298C35.6881 48.5652 35.7679 51.1838 36.9814 53.3393C39.9672 54.441 43.1765 55.0477 46.4976 55.0477H53.8903V55.0158H53.9062Z" fill="#9747FF"/>
<path d="M75.0781 42.1785L58.3768 19.0585C58.3768 19.0585 58.3289 18.9946 58.3129 18.9786L75.0941 42.1785H75.0781Z" fill="#9747FF"/>
<path d="M127.625 23.5771C123.936 12.2406 113.478 4.65637 101.567 4.65637H101.487L62.528 4.78411C62.2406 4.78411 61.9532 4.81604 61.6818 4.84797C64.3482 6.63626 66.7592 8.88758 68.7232 11.6019L73.0023 17.5256L101.519 17.4458H101.567C107.922 17.4458 113.51 21.5014 115.474 27.5528C116.688 31.2731 116.368 35.2329 114.596 38.7136C112.824 42.1944 109.806 44.781 106.086 45.9945C100.066 47.9425 93.5516 45.8508 89.7994 40.7734L91.5398 43.1844C91.6994 43.4079 91.8431 43.6634 91.9868 43.9029C98.9324 46.4735 104.649 51.7745 107.634 58.784C108.433 58.6083 109.231 58.3848 110.029 58.1293C116.991 55.862 122.659 51.0241 125.98 44.4936C129.301 37.9632 129.876 30.5386 127.625 23.5771Z" fill="url(#paint3_linear_69_604)"/>
<path d="M92.0031 43.871C93.2166 46.0265 93.2965 48.6291 92.1468 50.8804C90.9972 53.1317 88.8257 54.6007 86.3669 54.8721C90.8535 57.8579 96.1226 59.4706 101.519 59.4706C103.547 59.4706 105.607 59.2311 107.651 58.768C104.649 51.7586 98.9487 46.4416 92.0031 43.8869V43.871Z" fill="#9747FF"/>
<path d="M55.9338 8.82372C54.6565 11.3145 54.896 14.2684 56.5246 16.5357L58.2969 18.9786C58.2969 18.9786 58.3448 19.0425 58.3608 19.0585L75.0621 42.1784H82.3749C82.3749 42.1784 82.4388 42.1625 82.4547 42.1625C85.7918 42.1625 88.9852 42.7692 91.971 43.8709C91.8273 43.6314 91.6995 43.3919 91.5239 43.1524L89.7835 40.7414C89.7835 40.7414 89.7197 40.6616 89.6877 40.6137L72.9704 17.4937L68.6913 11.57C66.7274 8.83968 64.3164 6.58836 61.65 4.81604C59.1911 5.10344 57.0515 6.57239 55.9019 8.80775L55.9338 8.82372Z" fill="#9747FF"/>
<path d="M82.3908 42.1625H75.0779V42.1944L79.3571 48.1181C81.321 50.8325 83.7 53.0998 86.3665 54.888C88.8254 54.6166 90.9969 53.1477 92.1465 50.8963C93.2961 48.661 93.2163 46.0424 92.0028 43.8869C89.017 42.7852 85.8077 42.1784 82.4866 42.1784H82.4067L82.3908 42.1625Z" fill="#9747FF"/>
</g>
<defs>
<linearGradient id="paint0_linear_69_604" x1="2.58847" y1="58.4328" x2="65.7693" y2="81.5528" gradientUnits="userSpaceOnUse">
<stop offset="0.68" stop-color="#9747FF"/>
<stop offset="1" stop-color="#262328"/>
</linearGradient>
<linearGradient id="paint1_linear_69_604" x1="77.7605" y1="82.3032" x2="112.696" y2="57.9059" gradientUnits="userSpaceOnUse">
<stop offset="0.59" stop-color="#9747FF"/>
<stop offset="1" stop-color="#262328"/>
</linearGradient>
<linearGradient id="paint2_linear_69_604" x1="45.0924" y1="19.7132" x2="8.81573" y2="42.0188" gradientUnits="userSpaceOnUse">
<stop offset="0.39" stop-color="#9747FF"/>
<stop offset="0.87" stop-color="#262328"/>
</linearGradient>
<linearGradient id="paint3_linear_69_604" x1="61.6818" y1="31.7042" x2="110.285" y2="31.7042" gradientUnits="userSpaceOnUse">
<stop stop-color="#2A2430"/>
<stop offset="0.06" stop-color="#402B5B"/>
<stop offset="0.12" stop-color="#553282"/>
<stop offset="0.18" stop-color="#6737A4"/>
<stop offset="0.25" stop-color="#763CC0"/>
<stop offset="0.33" stop-color="#8240D7"/>
<stop offset="0.41" stop-color="#8B43E9"/>
<stop offset="0.52" stop-color="#9245F5"/>
<stop offset="0.66" stop-color="#9546FC"/>
<stop offset="1" stop-color="#9747FF"/>
</linearGradient>
<clipPath id="clip0_69_604">
<rect width="128.996" height="96.7431" fill="white" transform="translate(0.00196838 0.233643)"/>
</clipPath>
</defs>
</svg>
